<?xml version="1.0" encoding="UTF-8" standalone="no"?>
<!-- Created with Inkscape (http://www.inkscape.org/) -->

<svg
   xmlns:dc="http://purl.org/dc/elements/1.1/"
   xmlns:cc="http://creativecommons.org/ns#"
   xmlns:rdf="http://www.w3.org/1999/02/22-rdf-syntax-ns#"
   xmlns:svg="http://www.w3.org/2000/svg"
   xmlns="http://www.w3.org/2000/svg"
   xmlns:sodipodi="http://sodipodi.sourceforge.net/DTD/sodipodi-0.dtd"
   xmlns:inkscape="http://www.inkscape.org/namespaces/inkscape"
   width="486.26239"
   height="395.55801"
   id="svg2"
   version="1.1"
   inkscape:version="0.91 r13725"
   sodipodi:docname="sprite.svg"
   style="enable-background:new"
   inkscape:export-filename="/home/yoo2001818/git/CBreakout/res/sprite.png"
   inkscape:export-xdpi="90"
   inkscape:export-ydpi="90">
  <defs
     id="defs4">
    <linearGradient
       id="linearGradient3915">
      <stop
         style="stop-color:#f8fcff;stop-opacity:0.88028169;"
         offset="0"
         id="stop3917" />
      <stop
         style="stop-color:#f2f2f2;stop-opacity:0.76760566;"
         offset="1"
         id="stop3919" />
    </linearGradient>
  </defs>
  <sodipodi:namedview
     id="base"
     pagecolor="#ffffff"
     bordercolor="#666666"
     borderopacity="1.0"
     inkscape:pageopacity="0.0"
     inkscape:pageshadow="2"
     inkscape:zoom="2.2824437"
     inkscape:cx="347.289"
     inkscape:cy="288.95759"
     inkscape:document-units="px"
     inkscape:current-layer="layer1"
     showgrid="false"
     inkscape:window-width="1920"
     inkscape:window-height="1016"
     inkscape:window-x="0"
     inkscape:window-y="27"
     inkscape:window-maximized="1"
     inkscape:snap-page="true"
     inkscape:snap-bbox="true"
     inkscape:bbox-nodes="true"
     inkscape:snap-bbox-midpoints="true"
     inkscape:object-nodes="false"
     inkscape:snap-bbox-edge-midpoints="false"
     fit-margin-top="0"
     fit-margin-left="0"
     fit-margin-right="0"
     fit-margin-bottom="0"
     showguides="false" />
  <metadata
     id="metadata7">
    <rdf:RDF>
      <cc:Work
         rdf:about="">
        <dc:format>image/svg+xml</dc:format>
        <dc:type
           rdf:resource="http://purl.org/dc/dcmitype/StillImage" />
        <dc:title />
      </cc:Work>
    </rdf:RDF>
  </metadata>
  <g
     inkscape:label="Background"
     inkscape:groupmode="layer"
     id="layer1"
     transform="translate(0,-852.36218)"
     style="display:none">
    <rect
       style="opacity:1;fill:#d5d5d5;fill-opacity:1;fill-rule:nonzero;stroke:none;stroke-width:3;stroke-linecap:butt;stroke-linejoin:miter;stroke-miterlimit:4;stroke-dasharray:6, 3;stroke-dashoffset:0;stroke-opacity:1"
       id="rect4133"
       width="40"
       height="30"
       x="0"
       y="852.36218" />
    <rect
       y="882.36218"
       x="0"
       height="30"
       width="40"
       id="rect4135"
       style="opacity:1;fill:#e0e0e0;fill-opacity:1;fill-rule:nonzero;stroke:none;stroke-width:3;stroke-linecap:butt;stroke-linejoin:miter;stroke-miterlimit:4;stroke-dasharray:6, 3;stroke-dashoffset:0;stroke-opacity:1" />
    <rect
       style="opacity:1;fill:#d5d5d5;fill-opacity:1;fill-rule:nonzero;stroke:none;stroke-width:3;stroke-linecap:butt;stroke-linejoin:miter;stroke-miterlimit:4;stroke-dasharray:6, 3;stroke-dashoffset:0;stroke-opacity:1"
       id="rect4137"
       width="40"
       height="30"
       x="0"
       y="912.36218" />
    <rect
       y="852.36218"
       x="40"
       height="40"
       width="40"
       id="rect4154"
       style="opacity:1;fill:#c0c0c0;fill-opacity:1;fill-rule:nonzero;stroke:none;stroke-width:3;stroke-linecap:butt;stroke-linejoin:miter;stroke-miterlimit:4;stroke-dasharray:6, 3;stroke-dashoffset:0;stroke-opacity:1" />
    <rect
       style="opacity:1;fill:#aaaaaa;fill-opacity:1;fill-rule:nonzero;stroke:none;stroke-width:3;stroke-linecap:butt;stroke-linejoin:miter;stroke-miterlimit:4;stroke-dasharray:6, 3;stroke-dashoffset:0;stroke-opacity:1"
       id="rect4159"
       width="40"
       height="40"
       x="40"
       y="892.36218" />
    <rect
       y="852.36218"
       x="80"
       height="100"
       width="100"
       id="rect4209"
       style="opacity:1;fill:#9e9e9e;fill-opacity:1;fill-rule:nonzero;stroke:none;stroke-width:3;stroke-linecap:butt;stroke-linejoin:miter;stroke-miterlimit:4;stroke-dasharray:6, 3;stroke-dashoffset:0;stroke-opacity:1" />
    <rect
       style="opacity:1;fill:#c4c4c4;fill-opacity:1;fill-rule:nonzero;stroke:none;stroke-width:3;stroke-linecap:butt;stroke-linejoin:miter;stroke-miterlimit:4;stroke-dasharray:6, 3;stroke-dashoffset:0;stroke-opacity:1"
       id="rect4211"
       width="100"
       height="100"
       x="80"
       y="952.36218" />
    <rect
       y="852.36218"
       x="180"
       height="100"
       width="100"
       id="rect4213"
       style="opacity:1;fill:#7e7e7e;fill-opacity:1;fill-rule:nonzero;stroke:none;stroke-width:3;stroke-linecap:butt;stroke-linejoin:miter;stroke-miterlimit:4;stroke-dasharray:6, 3;stroke-dashoffset:0;stroke-opacity:1" />
    <rect
       style="opacity:1;fill:#969696;fill-opacity:1;fill-rule:nonzero;stroke:none;stroke-width:5;stroke-linecap:butt;stroke-linejoin:miter;stroke-miterlimit:4;stroke-dasharray:none;stroke-dashoffset:0;stroke-opacity:1;enable-background:new"
       id="rect4459"
       width="128.87419"
       height="88.880539"
       x="180"
       y="952.36218" />
    <rect
       y="952.36218"
       x="308.87421"
       height="117.01528"
       width="177.38817"
       id="rect4491"
       style="opacity:1;fill:#c1c1c1;fill-opacity:1;fill-rule:nonzero;stroke:none;stroke-width:5;stroke-linecap:butt;stroke-linejoin:miter;stroke-miterlimit:4;stroke-dasharray:none;stroke-dashoffset:0;stroke-opacity:1;enable-background:new" />
    <rect
       y="952.36218"
       x="180"
       height="88.880539"
       width="128.87419"
       id="rect4493"
       style="opacity:1;fill:#969696;fill-opacity:1;fill-rule:nonzero;stroke:none;stroke-width:5;stroke-linecap:butt;stroke-linejoin:miter;stroke-miterlimit:4;stroke-dasharray:none;stroke-dashoffset:0;stroke-opacity:1;enable-background:new" />
    <rect
       style="opacity:1;fill:#626262;fill-opacity:1;fill-rule:nonzero;stroke:none;stroke-width:5;stroke-linecap:butt;stroke-linejoin:miter;stroke-miterlimit:4;stroke-dasharray:none;stroke-dashoffset:0;stroke-opacity:1;enable-background:new"
       id="rect4495"
       width="131.46062"
       height="89.662277"
       x="178.70679"
       y="1041.2427" />
    <rect
       style="opacity:1;fill:#969696;fill-opacity:1;fill-rule:nonzero;stroke:none;stroke-width:5;stroke-linecap:butt;stroke-linejoin:miter;stroke-miterlimit:4;stroke-dasharray:none;stroke-dashoffset:0;stroke-opacity:1;enable-background:new"
       id="rect4497"
       width="168.53825"
       height="125.90088"
       x="309.0621"
       y="1069.3774" />
    <rect
       style="opacity:1;fill:#c1c1c1;fill-opacity:1;fill-rule:nonzero;stroke:none;stroke-width:5;stroke-linecap:butt;stroke-linejoin:miter;stroke-miterlimit:4;stroke-dasharray:none;stroke-dashoffset:0;stroke-opacity:1;enable-background:new"
       id="rect4499"
       width="177.38817"
       height="117.01528"
       x="132.77924"
       y="1130.9049" />
    <rect
       style="opacity:1;fill:#606060;fill-opacity:1;fill-rule:nonzero;stroke:none;stroke-width:2;stroke-linecap:butt;stroke-linejoin:miter;stroke-miterlimit:4;stroke-dasharray:none;stroke-dashoffset:0;stroke-opacity:1"
       id="rect4170"
       width="40"
       height="40"
       x="0"
       y="942.36218" />
    <rect
       y="942.36218"
       x="40"
       height="40"
       width="40"
       id="rect4182"
       style="opacity:1;fill:#606060;fill-opacity:1;fill-rule:nonzero;stroke:none;stroke-width:2;stroke-linecap:butt;stroke-linejoin:miter;stroke-miterlimit:4;stroke-dasharray:none;stroke-dashoffset:0;stroke-opacity:1" />
    <rect
       style="opacity:1;fill:#606060;fill-opacity:1;fill-rule:nonzero;stroke:none;stroke-width:2;stroke-linecap:butt;stroke-linejoin:miter;stroke-miterlimit:4;stroke-dasharray:none;stroke-dashoffset:0;stroke-opacity:1"
       id="rect4186"
       width="40"
       height="40"
       x="0"
       y="982.36218" />
    <rect
       style="opacity:1;fill:#606060;fill-opacity:1;fill-rule:nonzero;stroke:none;stroke-width:2;stroke-linecap:butt;stroke-linejoin:miter;stroke-miterlimit:4;stroke-dasharray:none;stroke-dashoffset:0;stroke-opacity:1"
       id="rect4188"
       width="40"
       height="40"
       x="40"
       y="982.36218" />
    <rect
       y="1022.3619"
       x="-0.19720981"
       height="40"
       width="40"
       id="rect4223"
       style="opacity:1;fill:#aaaaaa;fill-opacity:1;fill-rule:nonzero;stroke:none;stroke-width:3;stroke-linecap:butt;stroke-linejoin:miter;stroke-miterlimit:4;stroke-dasharray:6, 3;stroke-dashoffset:0;stroke-opacity:1" />
    <rect
       y="1062.3618"
       x="-0.19720981"
       height="40"
       width="40"
       id="rect4288"
       style="opacity:1;fill:#aaaaaa;fill-opacity:1;fill-rule:nonzero;stroke:none;stroke-width:3;stroke-linecap:butt;stroke-linejoin:miter;stroke-miterlimit:4;stroke-dasharray:6, 3;stroke-dashoffset:0;stroke-opacity:1" />
    <rect
       style="opacity:1;fill:#aaaaaa;fill-opacity:1;fill-rule:nonzero;stroke:none;stroke-width:3;stroke-linecap:butt;stroke-linejoin:miter;stroke-miterlimit:4;stroke-dasharray:6, 3;stroke-dashoffset:0;stroke-opacity:1"
       id="rect4292"
       width="40"
       height="40"
       x="39.802792"
       y="1062.3618" />
    <rect
       style="opacity:1;fill:#d9d9d9;fill-opacity:1;fill-rule:nonzero;stroke:none;stroke-width:2;stroke-linecap:butt;stroke-linejoin:miter;stroke-miterlimit:4;stroke-dasharray:none;stroke-dashoffset:0;stroke-opacity:1;enable-background:new"
       id="rect4196"
       width="16.448973"
       height="25.135"
       x="280"
       y="852.36218" />
    <rect
       y="852.36218"
       x="296.44897"
       height="25.135"
       width="16.448973"
       id="rect4298"
       style="opacity:1;fill:#bdbdbd;fill-opacity:1;fill-rule:nonzero;stroke:none;stroke-width:2;stroke-linecap:butt;stroke-linejoin:miter;stroke-miterlimit:4;stroke-dasharray:none;stroke-dashoffset:0;stroke-opacity:1;enable-background:new" />
    <rect
       y="852.36218"
       x="312.89795"
       height="25.135"
       width="16.448973"
       id="rect4302"
       style="opacity:1;fill:#d9d9d9;fill-opacity:1;fill-rule:nonzero;stroke:none;stroke-width:2;stroke-linecap:butt;stroke-linejoin:miter;stroke-miterlimit:4;stroke-dasharray:none;stroke-dashoffset:0;stroke-opacity:1;enable-background:new" />
    <rect
       style="opacity:1;fill:#bdbdbd;fill-opacity:1;fill-rule:nonzero;stroke:none;stroke-width:2;stroke-linecap:butt;stroke-linejoin:miter;stroke-miterlimit:4;stroke-dasharray:none;stroke-dashoffset:0;stroke-opacity:1;enable-background:new"
       id="rect4304"
       width="16.448973"
       height="25.135"
       x="329.34692"
       y="852.36218" />
    <rect
       style="opacity:1;fill:#d9d9d9;fill-opacity:1;fill-rule:nonzero;stroke:none;stroke-width:2;stroke-linecap:butt;stroke-linejoin:miter;stroke-miterlimit:4;stroke-dasharray:none;stroke-dashoffset:0;stroke-opacity:1;enable-background:new"
       id="rect4306"
       width="16.448973"
       height="25.135"
       x="345.7959"
       y="852.36218" />
    <rect
       y="852.36218"
       x="362.24487"
       height="25.135"
       width="16.448973"
       id="rect4308"
       style="opacity:1;fill:#bdbdbd;fill-opacity:1;fill-rule:nonzero;stroke:none;stroke-width:2;stroke-linecap:butt;stroke-linejoin:miter;stroke-miterlimit:4;stroke-dasharray:none;stroke-dashoffset:0;stroke-opacity:1;enable-background:new" />
    <rect
       y="852.36218"
       x="378.69385"
       height="25.135"
       width="16.448973"
       id="rect4310"
       style="opacity:1;fill:#d9d9d9;fill-opacity:1;fill-rule:nonzero;stroke:none;stroke-width:2;stroke-linecap:butt;stroke-linejoin:miter;stroke-miterlimit:4;stroke-dasharray:none;stroke-dashoffset:0;stroke-opacity:1;enable-background:new" />
    <rect
       style="opacity:1;fill:#bdbdbd;fill-opacity:1;fill-rule:nonzero;stroke:none;stroke-width:2;stroke-linecap:butt;stroke-linejoin:miter;stroke-miterlimit:4;stroke-dasharray:none;stroke-dashoffset:0;stroke-opacity:1;enable-background:new"
       id="rect4312"
       width="16.448973"
       height="25.135"
       x="395.14282"
       y="852.36218" />
    <rect
       style="opacity:1;fill:#d9d9d9;fill-opacity:1;fill-rule:nonzero;stroke:none;stroke-width:2;stroke-linecap:butt;stroke-linejoin:miter;stroke-miterlimit:4;stroke-dasharray:none;stroke-dashoffset:0;stroke-opacity:1;enable-background:new"
       id="rect4314"
       width="16.448973"
       height="25.135"
       x="411.5918"
       y="852.36218" />
    <rect
       y="852.36218"
       x="428.04077"
       height="25.135"
       width="16.448973"
       id="rect4316"
       style="opacity:1;fill:#bdbdbd;fill-opacity:1;fill-rule:nonzero;stroke:none;stroke-width:2;stroke-linecap:butt;stroke-linejoin:miter;stroke-miterlimit:4;stroke-dasharray:none;stroke-dashoffset:0;stroke-opacity:1;enable-background:new" />
    <rect
       y="852.36218"
       x="444.48975"
       height="25.135"
       width="21.213602"
       id="rect4322"
       style="opacity:1;fill:#d9d9d9;fill-opacity:1;fill-rule:nonzero;stroke:none;stroke-width:2;stroke-linecap:butt;stroke-linejoin:miter;stroke-miterlimit:4;stroke-dasharray:none;stroke-dashoffset:0;stroke-opacity:1;enable-background:new" />
    <rect
       style="opacity:1;fill:#bdbdbd;fill-opacity:1;fill-rule:nonzero;stroke:none;stroke-width:2;stroke-linecap:butt;stroke-linejoin:miter;stroke-miterlimit:4;stroke-dasharray:none;stroke-dashoffset:0;stroke-opacity:1;enable-background:new"
       id="rect4324"
       width="20.559052"
       height="25.135"
       x="465.70334"
       y="852.36218" />
  </g>
  <g
     inkscape:groupmode="layer"
     id="layer7"
     inkscape:label="Item"
     sodipodi:insensitive="true">
    <rect
       style="display:inline;opacity:1;fill:#a5eba0;fill-opacity:1;fill-rule:nonzero;stroke:#39d02d;stroke-width:2.00004888;stroke-linecap:butt;stroke-linejoin:miter;stroke-miterlimit:4;stroke-dasharray:none;stroke-dashoffset:0;stroke-opacity:1;enable-background:new"
       id="rect4172"
       width="26.006596"
       height="26.283262"
       x="-47.76553"
       y="106.89639"
       transform="matrix(0.70359982,-0.71059643,0.70359982,0.71059643,0,0)" />
    <rect
       transform="matrix(0.70359982,-0.71059643,0.70359982,0.71059643,0,0)"
       y="78.470749"
       x="-76.190414"
       height="26.283262"
       width="26.006596"
       id="rect4184"
       style="display:inline;opacity:1;fill:#eba0a0;fill-opacity:1;fill-rule:nonzero;stroke:#d02d2d;stroke-width:2.00004888;stroke-linecap:butt;stroke-linejoin:miter;stroke-miterlimit:4;stroke-dasharray:none;stroke-dashoffset:0;stroke-opacity:1;enable-background:new" />
    <rect
       transform="matrix(0.70359982,-0.71059643,0.70359982,0.71059643,0,0)"
       y="135.04137"
       x="-75.910507"
       height="26.283262"
       width="26.006596"
       id="rect4190"
       style="display:inline;opacity:1;fill:#ebeba0;fill-opacity:1;fill-rule:nonzero;stroke:#d0d02d;stroke-width:2.00004888;stroke-linecap:butt;stroke-linejoin:miter;stroke-miterlimit:4;stroke-dasharray:none;stroke-dashoffset:0;stroke-opacity:1;enable-background:new" />
    <rect
       style="display:inline;opacity:1;fill:#a0c0eb;fill-opacity:1;fill-rule:nonzero;stroke:#2d83d0;stroke-width:2.00004888;stroke-linecap:butt;stroke-linejoin:miter;stroke-miterlimit:4;stroke-dasharray:none;stroke-dashoffset:0;stroke-opacity:1;enable-background:new"
       id="rect4192"
       width="26.006596"
       height="26.283262"
       x="-104.33582"
       y="106.61613"
       transform="matrix(0.70359982,-0.71059643,0.70359982,0.71059643,0,0)" />
    <text
       xml:space="preserve"
       style="font-style:normal;font-weight:normal;font-size:30px;line-height:125%;font-family:Sans;letter-spacing:0px;word-spacing:0px;fill:#000000;fill-opacity:1;stroke:none;stroke-width:1px;stroke-linecap:butt;stroke-linejoin:miter;stroke-opacity:1"
       x="61.914886"
       y="209.47958"
       id="text4219"
       sodipodi:linespacing="125%"><tspan
         sodipodi:role="line"
         id="tspan4221"
         x="61.914886"
         y="209.47958" /></text>
  </g>
  <g
     inkscape:groupmode="layer"
     id="layer2"
     inkscape:label="Paddle"
     style="display:inline"
     transform="translate(0,-1.9073486e-6)"
     sodipodi:insensitive="true">
    <rect
       style="opacity:1;fill:#e8e8e8;fill-opacity:1;fill-rule:nonzero;stroke:#7a7a7a;stroke-width:2;stroke-linecap:butt;stroke-linejoin:miter;stroke-miterlimit:4;stroke-dasharray:none;stroke-dashoffset:0;stroke-opacity:1"
       id="rect4140"
       width="38"
       height="88"
       x="1"
       y="1.0000026"
       rx="4.0000005"
       ry="4" />
  </g>
  <g
     inkscape:groupmode="layer"
     id="layer3"
     inkscape:label="Ball"
     style="display:inline"
     transform="translate(0,-1.9073486e-6)"
     sodipodi:insensitive="true">
    <circle
       style="opacity:1;fill:#ffffff;fill-opacity:1;fill-rule:nonzero;stroke:#7a7a7a;stroke-width:2;stroke-linecap:butt;stroke-linejoin:miter;stroke-miterlimit:4;stroke-dasharray:none;stroke-dashoffset:0;stroke-opacity:1"
       id="path4157"
       cx="60"
       cy="20.000002"
       r="19" />
  </g>
  <g
     inkscape:groupmode="layer"
     id="layer4"
     inkscape:label="Heart"
     transform="translate(0,-1.9073486e-6)">
    <path
       style="display:inline;opacity:1;fill:#ffb4b4;fill-opacity:1;fill-rule:nonzero;stroke:#d74747;stroke-width:1.99999988;stroke-linecap:butt;stroke-linejoin:miter;stroke-miterlimit:4;stroke-dasharray:none;stroke-dashoffset:0;stroke-opacity:1"
       d="m 52.574999,43.529331 c -5.011984,0 -9.077098,4.014255 -9.075,8.966089 1.15e-4,0.269564 0.01667,0.538879 0.0435,0.807138 0.0055,0.05479 0.01495,0.110374 0.02095,0.165568 0.05753,0.529718 0.161548,1.053495 0.312598,1.564926 2.447366,8.967649 16.122955,21.100237 16.122955,21.100237 0,0 13.65673,-12.139377 16.122949,-21.101829 0.228048,-0.828746 0.37674,-1.677212 0.377051,-2.53604 0.0018,-4.951834 -4.063016,-8.966089 -9.075,-8.966089 -2.958993,0.0019 -5.731215,1.429046 -7.428223,3.823961 -1.695699,-2.393075 -4.465063,-3.819948 -7.421777,-3.823961 z"
       id="circle4192"
       inkscape:connector-curvature="0"
       sodipodi:nodetypes="csssccssccc" />
    <path
       sodipodi:nodetypes="csssccssccc"
       inkscape:connector-curvature="0"
       id="path4225"
       d="m 12.377789,173.52903 c -5.0119842,0 -9.0770982,4.01425 -9.0750002,8.96609 1.15e-4,0.26956 0.01667,0.53888 0.0435,0.80713 0.0055,0.0548 0.01495,0.11038 0.02095,0.16557 0.05753,0.52972 0.161548,1.0535 0.312598,1.56493 2.447366,8.96765 16.1229552,21.10024 16.1229552,21.10024 0,0 13.65673,-12.13938 16.122949,-21.10183 0.228048,-0.82875 0.37674,-1.67722 0.377051,-2.53604 0.0018,-4.95184 -4.063016,-8.96609 -9.075,-8.96609 -2.958993,0.002 -5.731215,1.42904 -7.428223,3.82396 -1.695699,-2.39308 -4.465063,-3.81995 -7.421777,-3.82396 z"
       style="display:inline;opacity:1;fill:#d9d9d9;fill-opacity:1;fill-rule:nonzero;stroke:#8f8f8f;stroke-width:1.99999988;stroke-linecap:butt;stroke-linejoin:miter;stroke-miterlimit:4;stroke-dasharray:none;stroke-dashoffset:0;stroke-opacity:1" />
  </g>
  <g
     inkscape:groupmode="layer"
     id="layer5"
     inkscape:label="Brick"
     transform="translate(0,-1.9073486e-6)">
    <rect
       style="opacity:1;fill:#7a7a7a;fill-opacity:1;fill-rule:nonzero;stroke:none;stroke-width:2;stroke-linecap:butt;stroke-linejoin:miter;stroke-miterlimit:4;stroke-dasharray:none;stroke-dashoffset:0;stroke-opacity:1"
       id="rect4282"
       width="98"
       height="98"
       x="181"
       y="1"
       rx="5"
       ry="5" />
    <g
       id="g4274"
       transform="translate(0,100)"
       style="stroke:none;fill:#3e853f;fill-opacity:1">
      <rect
         style="opacity:1;fill:#3e853f;fill-opacity:1;fill-rule:nonzero;stroke:none;stroke-width:2;stroke-linecap:butt;stroke-linejoin:miter;stroke-miterlimit:4;stroke-dasharray:none;stroke-dashoffset:0;stroke-opacity:1"
         id="rect4276"
         width="98"
         height="98"
         x="81"
         y="1.0000026"
         rx="5"
         ry="5" />
      <rect
         style="opacity:1;fill:#3e853f;fill-opacity:1;fill-rule:nonzero;stroke:none;stroke-width:2;stroke-linecap:butt;stroke-linejoin:miter;stroke-miterlimit:4;stroke-dasharray:none;stroke-dashoffset:0;stroke-opacity:1"
         id="rect4278"
         width="9.9125519"
         height="30.681707"
         x="94.30722"
         y="23.65727"
         rx="5"
         ry="5" />
    </g>
    <path
       sodipodi:nodetypes="ssssssscccss"
       inkscape:connector-curvature="0"
       id="path4270"
       d="m 186,1.000002 88,0 c 2.77,0 5,2.23 5,5 l 0,88.000005 c 0,2.77 -2.23,5 -5,5 l -88,0 c -2.77,0 -5,-2.23 -5,-5 l 0,-6.959595 26.07945,0 c 0,0 -2.55349,-20.76915 -26.07945,-20.76915 l 0,-60.27126 c 0,-2.77 2.23,-5 5,-5 z"
       style="opacity:1;fill:#e8e8e8;fill-opacity:1;fill-rule:nonzero;stroke:#7a7a7a;stroke-width:2;stroke-linecap:butt;stroke-linejoin:miter;stroke-miterlimit:4;stroke-dasharray:none;stroke-dashoffset:0;stroke-opacity:1" />
    <g
       id="g4245">
      <rect
         ry="5"
         rx="5"
         y="1.0000026"
         x="81"
         height="98"
         width="98"
         id="rect4216"
         style="opacity:1;fill:#e8e8e8;fill-opacity:1;fill-rule:nonzero;stroke:#7a7a7a;stroke-width:2;stroke-linecap:butt;stroke-linejoin:miter;stroke-miterlimit:4;stroke-dasharray:none;stroke-dashoffset:0;stroke-opacity:1" />
      <rect
         ry="5"
         rx="5"
         y="23.65727"
         x="94.30722"
         height="30.681707"
         width="9.9125519"
         id="rect4229"
         style="opacity:1;fill:#7a7a7a;fill-opacity:1;fill-rule:nonzero;stroke:#7a7a7a;stroke-width:2;stroke-linecap:butt;stroke-linejoin:miter;stroke-miterlimit:4;stroke-dasharray:none;stroke-dashoffset:0;stroke-opacity:1" />
    </g>
    <path
       style="fill:none;fill-rule:evenodd;stroke:#7a7a7a;stroke-width:0;stroke-linecap:butt;stroke-linejoin:miter;stroke-opacity:1;stroke-miterlimit:4;stroke-dasharray:none"
       d="M 185.97835,22.657267 205.68544,8.6144858"
       id="path4233"
       inkscape:connector-curvature="0" />
    <path
       style="opacity:1;fill:#d7fdd3;fill-opacity:1;fill-rule:nonzero;stroke:#3e853f;stroke-width:2;stroke-linecap:butt;stroke-linejoin:miter;stroke-miterlimit:4;stroke-dasharray:none;stroke-dashoffset:0;stroke-opacity:1"
       d="m 86,101 88,0 c 2.77,0 5,2.23 5,5 l 0,88 c 0,2.77 -2.23,5 -5,5 l -88,0 c -2.77,0 -5,-2.23 -5,-5 l 0,-6.95959 26.07945,0 c 0,0 -2.55349,-20.76915 -26.07945,-20.76915 L 81,106 c 0,-2.77 2.23,-5 5,-5 z"
       id="rect4251"
       inkscape:connector-curvature="0"
       sodipodi:nodetypes="ssssssscccss" />
    <rect
       ry="5"
       rx="5"
       y="123.65727"
       x="94.30722"
       height="30.681707"
       width="9.9125519"
       id="rect4253"
       style="opacity:1;fill:#3e853f;fill-opacity:1;fill-rule:nonzero;stroke:#3e853f;stroke-width:2;stroke-linecap:butt;stroke-linejoin:miter;stroke-miterlimit:4;stroke-dasharray:none;stroke-dashoffset:0;stroke-opacity:1" />
    <rect
       style="opacity:1;fill:#7a7a7a;fill-opacity:1;fill-rule:nonzero;stroke:#7a7a7a;stroke-width:2;stroke-linecap:butt;stroke-linejoin:miter;stroke-miterlimit:4;stroke-dasharray:none;stroke-dashoffset:0;stroke-opacity:1"
       id="rect4284"
       width="9.9125519"
       height="30.681707"
       x="170.48251"
       y="-131.5495"
       rx="5"
       ry="5"
       inkscape:transform-center-y="-6.9623888"
       transform="matrix(0.70710678,0.70710678,-0.70710678,0.70710678,0,0)"
       inkscape:transform-center-x="-6.9623824" />
  </g>
  <g
     inkscape:groupmode="layer"
     id="layer6"
     inkscape:label="Cloud">
    <path
       style="fill:#ffffff;fill-opacity:1;fill-rule:nonzero;stroke:#b1daff;stroke-width:5;stroke-linecap:round;stroke-linejoin:round;stroke-miterlimit:4;stroke-dasharray:none;stroke-opacity:1;enable-background:new"
       d="m 264.40213,194.72183 c -7.10813,0 -13.42619,3.34993 -17.43669,8.54045 -4.35581,-2.40071 -9.36563,-3.77285 -14.70385,-3.77285 -11.16266,0 -20.91634,5.98323 -26.17292,14.88541 -0.96901,-0.19072 -1.97263,-0.29843 -2.99817,-0.29843 -8.44499,0 -15.28486,6.78265 -15.28486,15.1483 0,1.97772 0.38,3.86694 1.07593,5.59892 -1.77311,3.31008 -2.77586,7.08288 -2.77586,11.09119 0,13.09071 10.71301,23.70298 23.92785,23.70298 6.18726,0 11.82638,-2.32111 16.07389,-6.13891 5.30185,5.67444 12.88188,9.22259 21.3027,9.22259 11.34539,0 21.16989,-6.44599 25.94342,-15.84462 1.84734,0.45909 3.78289,0.70341 5.77394,0.70341 13.05853,0 23.64097,-10.49007 23.64097,-23.42584 0,-10.63698 -7.15862,-19.61065 -16.96324,-22.4667 -2.2047,-9.69849 -10.94662,-16.9459 -21.40311,-16.9459 z"
       id="path6037"
       inkscape:connector-curvature="0" />
    <path
       style="fill:#ffffff;fill-opacity:1;fill-rule:nonzero;stroke:#b1daff;stroke-width:5;stroke-miterlimit:4;stroke-dasharray:none;stroke-opacity:1;enable-background:new"
       d="m 207.70016,284.6144 c -16.65868,0 -30.19154,13.30323 -30.47749,29.81536 -0.002,0 -0.005,0 -0.006,0 -17.13308,0 -31.02391,13.82528 -31.02391,30.87745 0,17.05217 13.89083,30.87107 31.02391,30.87107 2.90276,0 5.71157,-0.39682 8.37631,-1.13889 3.42083,7.42656 10.95766,12.58516 19.70335,12.58516 5.90637,0 11.25708,-2.35267 15.1648,-6.16781 6.08509,5.01383 13.89288,8.02968 22.40974,8.02968 16.66836,0 30.62723,-11.54056 34.25102,-27.03218 11.36796,-3.477 19.63263,-14.00839 19.63263,-26.46273 0,-15.28817 -12.44898,-27.68476 -27.80967,-27.68476 -0.17358,0 -0.34788,0.004 -0.5207,0.006 -3.33551,-9.75688 -12.61612,-16.77595 -23.54759,-16.77595 -5.05366,0 -9.75526,1.50473 -13.67984,4.08203 -5.59207,-6.72165 -14.04293,-11.00482 -23.49613,-11.00482 z"
       id="path4157-9"
       inkscape:connector-curvature="0" />
    <path
       style="fill:#ffffff;fill-opacity:1;fill-rule:nonzero;stroke:#b1daff;stroke-width:5;stroke-miterlimit:4;stroke-dasharray:none;stroke-opacity:1;enable-background:new"
       d="m 395.07439,227.62978 c -9.49983,0 -17.89402,4.72239 -22.98925,11.95872 -3.13581,-1.64534 -6.70427,-2.57539 -10.48782,-2.57539 -12.51892,0 -22.66706,10.18573 -22.66706,22.75098 0,0.49671 0.0147,0.98946 0.0461,1.47822 -9.87674,5.56668 -16.55158,16.17939 -16.55158,28.35789 0,17.95035 14.49983,32.50385 32.38399,32.50385 1.5043,0 2.98008,-0.10677 4.42986,-0.30604 3.97289,6.05723 10.80545,10.05893 18.57087,10.05893 7.50824,0 14.14561,-3.74154 18.16821,-9.46415 4.6571,6.02927 11.94072,9.90879 20.12995,9.90879 12.22916,0 22.44556,-8.65331 24.89927,-20.19293 13.25272,-2.69914 23.23085,-14.46172 23.23085,-28.55998 0,-12.45628 -7.7891,-23.086 -18.74347,-27.25496 0.01,-0.25865 0.0175,-0.51842 0.0175,-0.77955 0,-10.89401 -8.79862,-19.72521 -19.65249,-19.72521 -3.24776,0 -6.31018,0.79415 -9.00925,2.19425 -5.16049,-6.31927 -12.99958,-10.35342 -21.77538,-10.35342 z"
       id="path4191-4"
       inkscape:connector-curvature="0" />
    <path
       inkscape:connector-curvature="0"
       id="path6176-4"
       d="m 387.86342,106.59333 c -13.14025,0 -24.47822,7.66069 -29.75606,18.73574 -22.49171,1.27377 -40.34,19.81578 -40.34,42.50771 0,23.51728 19.16901,42.58511 42.81104,42.58511 7.42417,0 14.40755,-1.88354 20.49399,-5.19101 4.15658,2.22509 8.9026,3.48936 13.95357,3.48936 8.389,0 15.95996,-3.48464 21.33209,-9.07567 3.3766,1.88521 7.26572,2.96504 11.41339,2.96504 10.85099,0 19.9822,-7.35271 22.61081,-17.32626 0.36534,0.0149 0.72823,0.0258 1.09727,0.0258 14.50547,-3e-5 26.2655,-11.69796 26.2655,-26.12689 0,-13.20098 -9.84444,-24.11558 -22.62808,-25.87765 -2.55735,-14.97215 -15.65219,-26.37607 -31.43219,-26.37607 -6.46412,0 -12.47971,1.92031 -17.5046,5.20815 -5.23694,-3.49615 -11.53576,-5.54337 -18.31673,-5.54337 z"
       style="display:inline;fill:#ffffff;fill-opacity:1;fill-rule:nonzero;stroke:#b1daff;stroke-width:5;stroke-linecap:round;stroke-linejoin:round;stroke-miterlimit:4;stroke-dasharray:none;stroke-dashoffset:0;stroke-opacity:1;marker-start:none;enable-background:new" />
    <path
       style="fill:#ffffff;fill-opacity:1;fill-rule:nonzero;stroke:#b1daff;stroke-width:5;stroke-miterlimit:4;stroke-dasharray:none;stroke-opacity:1;enable-background:new"
       d="m 253.31167,106.79594 c -8.8319,2e-5 -16.40552,5.3228 -19.61972,12.90255 -2.3643,-1.03084 -4.97484,-1.60532 -7.72471,-1.60532 -10.3819,0 -18.83729,8.15834 -19.16723,18.34588 -10.20996,1.40127 -18.07102,10.06844 -18.07102,20.55087 0,11.45914 9.39422,20.74924 20.98178,20.74924 3.95798,0 7.65831,-1.0869 10.81744,-2.97077 2.63172,4.02632 7.20873,6.68884 12.41739,6.68884 3.69108,0 7.07075,-1.33478 9.66061,-3.5474 2.86149,2.59192 6.67314,4.17477 10.8594,4.17477 4.11001,0 7.85759,-1.528 10.70084,-4.03637 2.81655,0.98634 5.84918,1.52228 9.00749,1.52228 14.89782,0 26.97126,-11.93965 26.97126,-26.6723 0,-14.2847 -11.35298,-25.94865 -25.62316,-26.64465 -0.81304,-10.88091 -9.99984,-19.45762 -21.21037,-19.45762 z"
       id="path4305-4"
       inkscape:connector-curvature="0" />
    <rect
       style="opacity:1;fill:#ffb4b4;fill-opacity:1;fill-rule:nonzero;stroke:#d74747;stroke-width:2;stroke-linecap:butt;stroke-linejoin:miter;stroke-miterlimit:4;stroke-dasharray:none;stroke-dashoffset:0;stroke-opacity:1"
       id="rect4290"
       width="38"
       height="8"
       x="0.80279016"
       y="210.99969"
       rx="3"
       ry="3" />
    <rect
       ry="3"
       rx="3"
       y="210.99963"
       x="40.802792"
       height="38"
       width="38"
       id="rect4294"
       style="opacity:1;fill:#d9d9d9;fill-opacity:1;fill-rule:nonzero;stroke:#8f8f8f;stroke-width:2;stroke-linecap:butt;stroke-linejoin:miter;stroke-miterlimit:4;stroke-dasharray:none;stroke-dashoffset:0;stroke-opacity:1" />
  </g>
  <g
     inkscape:groupmode="layer"
     id="layer8"
     inkscape:label="Font">
    <text
       xml:space="preserve"
       style="font-style:normal;font-variant:normal;font-weight:normal;font-stretch:normal;font-size:27.5px;line-height:125%;font-family:'Droid Sans Mono';-inkscape-font-specification:'Droid Sans Mono';letter-spacing:0px;word-spacing:0px;fill:#000000;fill-opacity:1;stroke:none;stroke-width:1px;stroke-linecap:butt;stroke-linejoin:miter;stroke-opacity:1;enable-background:new"
       x="279.97986"
       y="22.403318"
       id="text4192"
       sodipodi:linespacing="125%"><tspan
         sodipodi:role="line"
         id="tspan4194"
         x="279.97986"
         y="22.403318">0</tspan></text>
    <text
       xml:space="preserve"
       style="font-style:normal;font-variant:normal;font-weight:normal;font-stretch:normal;font-size:27.5px;line-height:125%;font-family:'Droid Sans Mono';-inkscape-font-specification:'Droid Sans Mono';letter-spacing:0px;word-spacing:0px;fill:#000000;fill-opacity:1;stroke:none;stroke-width:1px;stroke-linecap:butt;stroke-linejoin:miter;stroke-opacity:1"
       x="295.90512"
       y="22.383177"
       id="text4254"
       sodipodi:linespacing="125%"><tspan
         sodipodi:role="line"
         id="tspan4256"
         x="295.90512"
         y="22.383177">1</tspan></text>
    <text
       xml:space="preserve"
       style="font-style:normal;font-weight:normal;font-size:27.5px;line-height:125%;font-family:Sans;letter-spacing:0px;word-spacing:0px;fill:#000000;fill-opacity:1;stroke:none;stroke-width:1px;stroke-linecap:butt;stroke-linejoin:miter;stroke-opacity:1"
       x="312.88452"
       y="22.524168"
       id="text4258"
       sodipodi:linespacing="125%"><tspan
         sodipodi:role="line"
         id="tspan4260"
         x="312.88452"
         y="22.524168"
         style="font-style:normal;font-variant:normal;font-weight:normal;font-stretch:normal;font-family:'Droid Sans Mono';-inkscape-font-specification:'Droid Sans Mono'">2</tspan></text>
    <text
       xml:space="preserve"
       style="font-style:normal;font-weight:normal;font-size:27.5px;line-height:125%;font-family:Sans;letter-spacing:0px;word-spacing:0px;fill:#000000;fill-opacity:1;stroke:none;stroke-width:1px;stroke-linecap:butt;stroke-linejoin:miter;stroke-opacity:1"
       x="329.60876"
       y="22.389891"
       id="text4262"
       sodipodi:linespacing="125%"><tspan
         sodipodi:role="line"
         id="tspan4264"
         x="329.60876"
         y="22.389891"
         style="font-style:normal;font-variant:normal;font-weight:normal;font-stretch:normal;font-family:'Droid Sans Mono';-inkscape-font-specification:'Droid Sans Mono'">3</tspan></text>
    <text
       xml:space="preserve"
       style="font-style:normal;font-weight:normal;font-size:27.5px;line-height:125%;font-family:Sans;letter-spacing:0px;word-spacing:0px;fill:#000000;fill-opacity:1;stroke:none;stroke-width:1px;stroke-linecap:butt;stroke-linejoin:miter;stroke-opacity:1"
       x="346.05103"
       y="22.436888"
       id="text4266"
       sodipodi:linespacing="125%"><tspan
         sodipodi:role="line"
         id="tspan4268"
         x="346.05103"
         y="22.436888"
         style="font-style:normal;font-variant:normal;font-weight:normal;font-stretch:normal;font-family:'Droid Sans Mono';-inkscape-font-specification:'Droid Sans Mono'">4</tspan></text>
    <text
       xml:space="preserve"
       style="font-style:normal;font-weight:normal;font-size:27.5px;line-height:125%;font-family:Sans;letter-spacing:0px;word-spacing:0px;fill:#000000;fill-opacity:1;stroke:none;stroke-width:1px;stroke-linecap:butt;stroke-linejoin:miter;stroke-opacity:1"
       x="328.15704"
       y="36.84161"
       id="text4270"
       sodipodi:linespacing="125%"><tspan
         sodipodi:role="line"
         id="tspan4272"
         x="328.15704"
         y="36.84161"></tspan></text>
    <text
       xml:space="preserve"
       style="font-style:normal;font-variant:normal;font-weight:normal;font-stretch:normal;font-size:27.5px;line-height:125%;font-family:'Droid Sans Mono';-inkscape-font-specification:'Droid Sans Mono';letter-spacing:0px;word-spacing:0px;fill:#000000;fill-opacity:1;stroke:none;stroke-width:1px;stroke-linecap:butt;stroke-linejoin:miter;stroke-opacity:1"
       x="362.23145"
       y="22.248899"
       id="text4274"
       sodipodi:linespacing="125%"><tspan
         sodipodi:role="line"
         id="tspan4276"
         x="362.23145"
         y="22.248899">5</tspan></text>
    <text
       xml:space="preserve"
       style="font-style:normal;font-weight:normal;font-size:27.5px;line-height:125%;font-family:Sans;letter-spacing:0px;word-spacing:0px;fill:#000000;fill-opacity:1;stroke:none;stroke-width:1px;stroke-linecap:butt;stroke-linejoin:miter;stroke-opacity:1"
       x="378.66699"
       y="22.389891"
       id="text4278"
       sodipodi:linespacing="125%"><tspan
         sodipodi:role="line"
         id="tspan4280"
         x="378.66699"
         y="22.389891"
         style="font-style:normal;font-variant:normal;font-weight:normal;font-stretch:normal;font-family:'Droid Sans Mono';-inkscape-font-specification:'Droid Sans Mono'">6</tspan></text>
    <text
       xml:space="preserve"
       style="font-style:normal;font-weight:normal;font-size:27.5px;line-height:125%;font-family:Sans;letter-spacing:0px;word-spacing:0px;fill:#000000;fill-opacity:1;stroke:none;stroke-width:1px;stroke-linecap:butt;stroke-linejoin:miter;stroke-opacity:1"
       x="395.13611"
       y="22.383177"
       id="text4282"
       sodipodi:linespacing="125%"><tspan
         sodipodi:role="line"
         id="tspan4284"
         x="395.13611"
         y="22.383177"
         style="font-style:normal;font-variant:normal;font-weight:normal;font-stretch:normal;font-family:'Droid Sans Mono';-inkscape-font-specification:'Droid Sans Mono'">7</tspan></text>
    <text
       xml:space="preserve"
       style="font-style:normal;font-weight:normal;font-size:27.5px;line-height:125%;font-family:Sans;letter-spacing:0px;word-spacing:0px;fill:#000000;fill-opacity:1;stroke:none;stroke-width:1px;stroke-linecap:butt;stroke-linejoin:miter;stroke-opacity:1"
       x="411.56494"
       y="22.403318"
       id="text4286"
       sodipodi:linespacing="125%"><tspan
         sodipodi:role="line"
         id="tspan4288"
         x="411.56494"
         y="22.403318"
         style="font-style:normal;font-variant:normal;font-weight:normal;font-stretch:normal;font-family:'Droid Sans Mono';-inkscape-font-specification:'Droid Sans Mono'">8</tspan></text>
    <text
       xml:space="preserve"
       style="font-style:normal;font-variant:normal;font-weight:normal;font-stretch:normal;font-size:27.5px;line-height:125%;font-family:'Droid Sans Mono';-inkscape-font-specification:'Droid Sans Mono';letter-spacing:0px;word-spacing:0px;fill:#000000;fill-opacity:1;stroke:none;stroke-width:1px;stroke-linecap:butt;stroke-linejoin:miter;stroke-opacity:1"
       x="428.01392"
       y="22.389891"
       id="text4290"
       sodipodi:linespacing="125%"><tspan
         sodipodi:role="line"
         id="tspan4292"
         x="428.01392"
         y="22.389891">9</tspan></text>
    <text
       xml:space="preserve"
       style="font-style:normal;font-weight:normal;font-size:23.17716408px;line-height:125%;font-family:Sans;letter-spacing:0px;word-spacing:0px;fill:#000000;fill-opacity:1;stroke:none;stroke-width:1px;stroke-linecap:butt;stroke-linejoin:miter;stroke-opacity:1"
       x="444.4509"
       y="20.10008"
       id="text4318"
       sodipodi:linespacing="125%"><tspan
         sodipodi:role="line"
         id="tspan4320"
         x="444.4509"
         y="20.10008"
         style="font-style:normal;font-variant:normal;font-weight:normal;font-stretch:normal;font-family:'Droid Sans Mono';-inkscape-font-specification:'Droid Sans Mono'">점</tspan></text>
    <text
       sodipodi:linespacing="125%"
       id="text4326"
       y="20.264378"
       x="465.17117"
       style="font-style:normal;font-weight:normal;font-size:23.17716408px;line-height:125%;font-family:Sans;letter-spacing:0px;word-spacing:0px;fill:#000000;fill-opacity:1;stroke:none;stroke-width:1px;stroke-linecap:butt;stroke-linejoin:miter;stroke-opacity:1"
       xml:space="preserve"><tspan
         style="font-style:normal;font-variant:normal;font-weight:normal;font-stretch:normal;font-family:'Droid Sans Mono';-inkscape-font-specification:'Droid Sans Mono'"
         y="20.264378"
         x="465.17117"
         id="tspan4328"
         sodipodi:role="line">수</tspan></text>
  </g>
</svg>
